<svg width="20" height="16" viewBox="0 0 20 16" fill="none" xmlns="http://www.w3.org/2000/svg">
<path d="M19.81 6.24999C19.75 6.20999 19.25 5.81999 18.17 5.81999C17.89 5.81999 17.61 5.84999 17.33 5.89999C17.12 4.49999 15.95 3.78999 15.9 3.75999L15.61 3.58999L15.43 3.85999C15.19 4.21999 15 4.62999 14.92 5.04999C14.72 5.84999 14.84 6.60999 15.25 7.25999C14.76 7.53999 13.96 7.60999 13.79 7.60999H0.62C0.28 7.60999 0 7.88999 0 8.23999C0 9.38999 0.18 10.54 0.58 11.62C1.03 12.81 1.71 13.69 2.58 14.23C3.56 14.83 5.17 15.17 7 15.17C7.79 15.17 8.61 15.1 9.42 14.95C10.54 14.75 11.62 14.36 12.61 13.79C13.4299 13.3211 14.1638 12.7158 14.78 12C15.83 10.83 16.45 9.49999 16.9 8.34999H17.09C18.23 8.34999 18.94 7.88999 19.33 7.49999C19.59 7.25999 19.78 6.96999 19.92 6.62999L20 6.38999L19.81 6.24999ZM1.85 7.23999H3.61C3.69 7.23999 3.77 7.16999 3.77 7.07999V5.49999C3.77 5.41999 3.7 5.33999 3.61 5.33999H1.85C1.76 5.33999 1.69 5.40999 1.69 5.49999V7.07999C1.7 7.16999 1.76 7.23999 1.85 7.23999ZM4.28 7.23999H6.04C6.12 7.23999 6.2 7.16999 6.2 7.07999V5.49999C6.2 5.41999 6.13 5.33999 6.04 5.33999H4.28C4.19 5.33999 4.12 5.40999 4.12 5.49999V7.07999C4.13 7.16999 4.19 7.23999 4.28 7.23999ZM6.75 7.23999H8.5C8.6 7.23999 8.67 7.16999 8.67 7.07999V5.49999C8.67 5.41999 8.61 5.33999 8.5 5.33999H6.75C6.67 5.33999 6.6 5.40999 6.6 5.49999V7.07999C6.6 7.16999 6.66 7.23999 6.75 7.23999ZM9.19 7.23999H10.96C11.04 7.23999 11.11 7.16999 11.11 7.07999V5.49999C11.11 5.41999 11.05 5.33999 10.96 5.33999H9.19C9.11 5.33999 9.04 5.40999 9.04 5.49999V7.07999C9.04 7.16999 9.11 7.23999 9.19 7.23999ZM4.28 4.99999H6.04C6.12 4.99999 6.2 4.90999 6.2 4.81999V3.24999C6.2 3.15999 6.13 3.08999 6.04 3.08999H4.28C4.19 3.08999 4.12 3.14999 4.12 3.24999V4.81999C4.13 4.90999 4.19 4.99999 4.28 4.99999ZM6.75 4.99999H8.5C8.6 4.99999 8.67 4.90999 8.67 4.81999V3.24999C8.67 3.15999 8.61 3.08999 8.5 3.08999H6.75C6.67 3.08999 6.6 3.14999 6.6 3.24999V4.81999C6.6 4.90999 6.66 4.99999 6.75 4.99999ZM9.19 4.99999H10.96C11.04 4.99999 11.11 4.90999 11.11 4.81999V3.24999C11.11 3.15999 11.04 3.08999 10.96 3.08999H9.19C9.11 3.08999 9.04 3.14999 9.04 3.24999V4.81999C9.04 4.90999 9.11 4.99999 9.19 4.99999ZM9.19 2.71999H10.96C11.04 2.71999 11.11 2.64999 11.11 2.55999V0.999987C11.11 0.899987 11.04 0.829987 10.96 0.829987H9.19C9.11 0.829987 9.04 0.889987 9.04 0.999987V2.55999C9.04 2.63999 9.11 2.71999 9.19 2.71999ZM11.65 7.23999H13.41C13.5 7.23999 13.57 7.16999 13.57 7.07999V5.49999C13.57 5.41999 13.5 5.33999 13.41 5.33999H11.65C11.57 5.33999 11.5 5.40999 11.5 5.49999V7.07999C11.5 7.16999 11.57 7.23999 11.65 7.23999Z" fill="#695AA6"/>
</svg>
