<svg width="16" height="16" viewBox="0 0 16 16" fill="none" xmlns="http://www.w3.org/2000/svg">
<path fill-rule="evenodd" clip-rule="evenodd" d="M14.2279 13.0744C14.0035 12.8896 13.7742 12.7092 13.5644 12.5087C13.3306 12.2856 13.1837 12.0157 13.2157 11.674C13.2341 11.4774 13.1887 11.3082 12.9516 11.2425C13.0074 11.0982 13.0596 11.0015 13.0807 10.8984C13.1042 10.7834 13.103 10.6625 13.1062 10.5441C13.1392 9.29912 12.6895 8.20774 12.0234 7.18974C11.7166 6.72124 11.3962 6.26112 11.0692 5.80649C10.5577 5.09549 10.3744 4.29674 10.3651 3.43387C10.3598 3.03555 10.3146 2.63876 10.23 2.24949C10.0659 1.49449 9.66137 0.904117 8.92775 0.587492C8.36562 0.344742 7.78375 0.296617 7.19012 0.451992C6.3275 0.677617 5.80587 1.31874 5.81562 2.21299C5.82487 3.07362 5.86775 3.93537 5.93087 4.79399C5.96687 5.28062 5.89187 5.70049 5.569 6.08649C5.2585 6.45762 4.98075 6.85799 4.71175 7.26112C4.55812 7.49162 4.42212 7.74274 4.32712 8.00249C4.06837 8.71037 3.8305 9.42412 3.41762 10.065C3.26462 10.3025 3.24725 10.5682 3.35587 10.8399C3.384 10.9102 3.40125 11.0185 3.367 11.0751C3.07275 11.5635 2.74062 11.9932 2.10875 12.087C1.61175 12.1609 1.58725 12.2512 1.60237 12.7636C1.61487 13.1807 1.61 13.6017 1.56737 14.0162C1.522 14.4606 1.56837 14.5814 1.99762 14.6879C2.98812 14.9339 3.98675 15.1437 4.93412 15.5446C5.3375 15.7152 5.74225 15.656 6.06712 15.3242C6.40625 14.9779 6.83475 14.8424 7.29762 14.8419C8.08325 14.8412 8.86912 14.8791 9.65512 14.888C9.86787 14.8905 9.99 14.9696 10.0756 15.1629C10.1806 15.3995 10.3581 15.5734 10.6312 15.6036C11.1554 15.6614 11.6329 15.5836 12.03 15.1837C12.5197 14.6902 13.0845 14.3005 13.7319 14.0304C13.9171 13.953 14.0916 13.8314 14.2447 13.6994C14.5236 13.4591 14.5089 13.3061 14.2279 13.0744ZM7.80325 3.01499C7.898 2.68987 8.12037 2.47887 8.45862 2.41487C8.74312 2.36112 8.984 2.50087 9.1635 2.82062C9.35675 3.16537 9.42025 3.52562 9.25525 3.90287C9.11987 4.21212 9.05637 4.24124 8.73987 4.13637C8.68062 4.11674 8.62275 4.09349 8.51775 4.05487C8.60625 3.98062 8.662 3.92549 8.72575 3.88212C8.8675 3.78562 8.90725 3.64987 8.894 3.48862C8.87662 3.27687 8.71012 3.08937 8.53937 3.09174C8.38625 3.09387 8.25662 3.23762 8.23937 3.45612C8.22862 3.59224 8.25125 3.73099 8.261 3.90474C7.83025 3.77687 7.67212 3.46412 7.80325 3.01499ZM6.2095 2.73362C6.36875 2.49262 6.60912 2.44437 6.84712 2.60562C7.10075 2.77762 7.2905 3.26262 7.1925 3.55262C7.15687 3.65812 7.05162 3.74012 6.978 3.83274L6.9025 3.78599C6.87375 3.62937 6.868 3.46287 6.80787 3.31937C6.76987 3.22837 6.65075 3.17137 6.568 3.09912C6.49025 3.19149 6.35637 3.27949 6.34837 3.37762C6.33737 3.51312 6.408 3.66262 6.4695 3.79399C6.50837 3.87662 6.59462 3.93712 6.68362 4.03349L6.44337 4.22224C6.06612 3.88474 5.954 3.11974 6.2095 2.73362ZM10.9175 10.7594C10.8921 11.0849 10.855 11.0985 10.5277 11.1466C10.2954 11.1806 10.2329 11.2411 10.2211 11.5171C10.2083 11.84 10.2078 12.1633 10.2196 12.4862C10.2272 12.7075 10.1525 12.881 10.0002 13.0354C9.15475 13.8924 8.14462 14.2985 6.93625 14.1511C6.415 14.0875 6.07425 13.7702 5.79912 13.3212C5.92162 13.2759 6.01225 13.2454 6.10062 13.2095C6.49087 13.0507 6.56387 12.7151 6.25225 12.4249C6.01675 12.2052 5.754 12.0145 5.50137 11.8134C5.25712 11.619 5.00962 11.4286 4.765 11.2347C4.5565 11.0694 4.47687 10.8562 4.47187 10.5862C4.46012 9.93849 4.59337 9.33249 4.86412 8.74287C5.10562 8.21674 5.29275 7.66574 5.519 7.13224C5.63587 6.85699 5.75725 6.57537 5.92875 6.33374C6.09362 6.10199 6.1955 5.87512 6.17725 5.59124C6.16675 5.43174 6.17525 5.27099 6.17525 5.11087L6.26362 5.06687C6.40625 5.18999 6.55137 5.31049 6.6915 5.43674C7.19712 5.89249 7.678 5.91337 8.23137 5.52049C8.46737 5.35287 8.72262 5.21174 8.97225 5.06399C9.03437 5.02724 9.10875 5.01112 9.214 4.97174C9.48287 5.60499 9.74675 6.22587 10.0109 6.84674C10.1449 7.16224 10.2524 7.49262 10.4189 7.79012C10.7527 8.38699 10.9304 9.01674 10.9276 9.69912C10.9261 10.0529 10.9447 10.4079 10.9175 10.7594Z" fill="#695AA6"/>
</svg>
