<svg width="20" height="16" viewBox="0 0 20 16" fill="none" xmlns="http://www.w3.org/2000/svg">
<g clip-path="url(#clip0_6_8)">
<path d="M20 8.25V7.75C20 7.47375 19.7763 7.25 19.5 7.25H10.75V6H13C13.5522 6 14 5.55219 14 5V1C14 0.447812 13.5522 0 13 0H7C6.44781 0 6 0.447812 6 1V5C6 5.55219 6.44781 6 7 6H9.25V7.25H0.5C0.22375 7.25 0 7.47375 0 7.75V8.25C0 8.52625 0.22375 8.75 0.5 8.75H3.75V10H2C1.44781 10 1 10.4478 1 11V15C1 15.5522 1.44781 16 2 16H7C7.55219 16 8 15.5522 8 15V11C8 10.4478 7.55219 10 7 10H5.25V8.75H14.75V10H13C12.4478 10 12 10.4478 12 11V15C12 15.5522 12.4478 16 13 16H18C18.5522 16 19 15.5522 19 15V11C19 10.4478 18.5522 10 18 10H16.25V8.75H19.5C19.7763 8.75 20 8.52625 20 8.25ZM8 4V2H12V4H8ZM6 14H3V12H6V14ZM17 14H14V12H17V14Z" fill="#695AA6"/>
</g>
<defs>
<clipPath id="clip0_6_8">
<rect width="20" height="16" fill="white"/>
</clipPath>
</defs>
</svg>
